<?xml version="1.0" standalone="no"?>
<!DOCTYPE svg PUBLIC "-//W3C//DTD SVG 20010904//EN"
 "http://www.w3.org/TR/2001/REC-SVG-20010904/DTD/svg10.dtd">
<svg version="1.0" xmlns="http://www.w3.org/2000/svg"
 width="549.000000pt" height="549.000000pt" viewBox="0 0 549.000000 549.000000"
 preserveAspectRatio="xMidYMid meet">
<metadata>
Created by potrace 1.14, written by Peter Selinger 2001-2017
</metadata>
<g transform="translate(0.000000,549.000000) scale(0.100000,-0.100000)"
fill="#000000" stroke="none">
<path d="M2140 5469 c-99 -45 -160 -138 -160 -246 0 -34 5 -74 10 -88 9 -25 5
-32 -51 -93 -76 -81 -128 -185 -136 -271 l-6 -60 -441 -3 -441 -3 -57 -27
c-74 -34 -152 -112 -186 -186 -26 -55 -27 -65 -30 -247 l-3 -190 -57 -17
c-162 -48 -262 -183 -262 -353 0 -170 100 -305 262 -353 l56 -17 4 -145 c3
-133 5 -150 30 -202 34 -74 112 -152 186 -186 l57 -27 343 -3 342 -3 0 -38 c0
-34 -3 -40 -27 -46 -50 -12 -191 -83 -265 -132 -40 -26 -114 -90 -165 -141
l-93 -92 -233 0 c-231 0 -234 0 -255 -23 -27 -29 -28 -58 -3 -178 15 -71 41
-259 41 -292 0 -2 -22 -14 -50 -26 -63 -28 -139 -112 -163 -177 -9 -27 -17
-77 -17 -114 0 -37 8 -87 17 -114 24 -65 100 -149 163 -177 45 -20 49 -25 43
-48 -4 -14 -7 -242 -8 -507 l0 -481 -135 -6 c-139 -7 -234 -20 -283 -39 -21
-8 -27 -17 -27 -39 0 -40 31 -57 124 -69 48 -6 825 -10 2064 -10 2098 0 2059
0 2127 44 17 12 25 24 23 39 -7 49 -168 68 -635 74 -205 3 -373 8 -373 12 0 3
153 159 340 346 l341 341 10 99 c9 90 35 174 247 813 l236 712 53 0 c103 0
215 64 267 153 14 23 98 247 187 497 l162 455 1 95 c1 81 -3 102 -23 144 -24
48 -71 103 -123 141 l-27 20 105 315 104 315 -3 100 c-3 86 -7 109 -32 160
-37 77 -123 163 -200 201 -56 27 -68 29 -175 29 -105 0 -120 -2 -170 -27 -73
-36 -132 -88 -179 -157 -31 -45 -157 -385 -651 -1751 -337 -932 -618 -1708
-625 -1725 -13 -28 -13 -26 -14 40 -1 103 -25 159 -97 232 -34 34 -72 65 -86
68 l-26 7 -4 219 -4 219 -26 26 c-25 26 -30 27 -184 32 l-158 5 -96 96 c-52
53 -128 118 -168 144 -62 41 -196 110 -254 130 -13 5 -18 17 -18 46 l0 40 368
3 367 3 57 27 c74 34 152 112 186 186 25 52 27 69 30 203 l4 147 42 4 c108 13
225 100 274 206 24 50 27 70 27 157 0 87 -3 107 -27 157 -49 106 -166 193
-274 206 l-43 4 -3 192 c-3 183 -4 193 -30 248 -34 74 -112 152 -186 186 l-57
27 -478 3 -478 3 7 37 c10 63 52 137 103 186 l50 46 35 -15 c55 -23 152 -19
211 9 99 47 154 135 155 246 0 155 -114 270 -270 270 -44 0 -80 -7 -110 -21z
m164 -159 c5 -5 -1 -11 -18 -14 -14 -4 -36 -8 -49 -11 -13 -2 -39 -15 -59 -29
-28 -19 -35 -20 -31 -7 17 63 116 102 157 61z m2467 -619 c46 -16 98 -34 116
-41 l31 -11 -15 -45 c-8 -24 -19 -46 -23 -49 -5 -3 -57 12 -117 33 -99 35
-108 40 -106 63 1 24 20 79 26 79 2 0 41 -13 88 -29z m-1916 -150 c65 -15
-132 -19 -955 -18 -944 0 -930 1 -986 -66 -64 -76 -77 -140 -98 -502 l-14
-230 1 330 c2 301 4 333 21 365 35 66 82 104 151 121 38 9 1839 9 1880 0z
m1831 -115 c54 -19 106 -37 115 -41 15 -5 12 -18 -19 -108 -20 -56 -36 -103
-37 -104 -1 -3 -121 37 -202 67 l-32 11 37 105 c20 57 37 104 38 104 0 0 45
-15 100 -34z m-2147 -162 c72 -21 134 -83 155 -155 23 -78 23 -710 0 -788 -21
-72 -83 -134 -155 -155 -79 -24 -1209 -24 -1288 0 -72 21 -134 83 -155 155
-23 78 -23 710 0 788 20 69 84 134 151 155 74 23 1216 23 1292 0z m-1899 -399
c0 -8 -19 -23 -42 -34 -24 -11 -54 -28 -67 -38 -23 -17 -24 -17 -13 2 13 26
39 48 77 68 38 20 45 21 45 2z m2630 -5 c21 -11 41 -23 43 -27 3 -5 -24 -18
-59 -30 l-64 -21 0 49 c0 43 3 49 20 49 12 0 38 -9 60 -20z m1849 -76 c27 -35
43 -96 35 -131 -4 -15 -79 -230 -166 -478 -142 -404 -162 -453 -193 -482 -31
-30 -80 -52 -90 -41 -6 6 378 1158 387 1158 3 0 16 -12 27 -26z m-836 -440 c0
-10 -44 -136 -95 -279 -52 -143 -98 -273 -102 -288 -9 -39 -42 -33 -39 7 3 35
178 531 199 564 17 27 40 24 37 -4z m-233 -705 c0 -25 -33 -22 -38 4 -2 12 3
17 17 17 15 0 21 -6 21 -21z m-2090 -98 l55 -6 -80 -14 c-118 -19 -292 -65
-355 -93 -30 -14 -86 -48 -123 -77 -64 -49 -71 -52 -119 -49 l-51 3 61 48
c180 141 413 213 612 188z m158 -418 l802 -6 0 -153 0 -152 -52 -18 c-72 -25
-166 -119 -191 -189 -22 -64 -22 -166 0 -230 25 -69 119 -164 190 -188 l52
-18 4 -392 c2 -216 7 -402 12 -414 l7 -23 -1095 0 -1095 0 -3 153 c-2 83 -2
215 1 291 l5 140 49 2 c70 4 172 55 226 113 92 98 139 243 121 374 -26 186
-203 387 -342 387 -43 0 -49 10 -49 78 0 43 -7 101 -25 210 l-8 42 294 0 c162
0 655 -3 1097 -7z m-1387 -483 c20 -6 44 -19 54 -30 18 -20 17 -20 -39 -20
-62 0 -87 -9 -128 -47 -29 -28 -61 -27 -66 1 -5 24 54 84 93 95 41 12 45 12
86 1z m2324 -13 c18 -9 14 -12 -32 -22 -58 -13 -97 -36 -113 -65 -12 -23 -42
-26 -59 -6 -15 17 -5 40 32 74 44 41 116 49 172 19z m155 -379 c-25 -42 -25
-80 0 -583 11 -214 20 -416 20 -447 0 -57 -1 -58 -28 -58 -30 0 -31 3 -77 152
-33 108 -40 215 -37 569 l3 307 23 6 c13 3 43 24 67 45 24 22 45 40 46 41 2 0
-6 -15 -17 -32z m435 -228 c2 0 -54 -142 -123 -315 -70 -173 -128 -304 -129
-292 -4 34 -33 631 -33 671 l0 35 141 -50 c77 -27 142 -49 144 -49z"/>
<path d="M1312 3919 c-126 -64 -137 -259 -20 -337 57 -37 141 -42 203 -12 129
62 142 259 23 338 -56 37 -146 42 -206 11z"/>
<path d="M2292 3919 c-126 -64 -137 -259 -20 -337 57 -37 141 -42 203 -12 129
62 142 259 23 338 -56 37 -146 42 -206 11z"/>
<path d="M1707 3602 c-43 -48 -5 -121 85 -166 96 -48 210 -27 278 50 53 61 33
134 -37 134 -18 0 -38 -9 -49 -21 -24 -26 -67 -49 -93 -49 -11 0 -40 16 -65
35 -52 39 -94 45 -119 17z"/>
<path d="M1342 1697 c-30 -32 -29 -87 1 -115 23 -22 23 -22 533 -22 l511 0 21
23 c30 32 29 87 -1 115 -23 22 -23 22 -533 22 l-511 0 -21 -23z"/>
<path d="M1342 1247 c-30 -32 -29 -87 1 -115 23 -22 23 -22 533 -22 l511 0 21
23 c30 32 29 87 -1 115 -23 22 -23 22 -533 22 l-511 0 -21 -23z"/>
<path d="M1342 797 c-30 -32 -29 -87 1 -115 23 -22 23 -22 533 -22 l511 0 21
23 c30 32 29 87 -1 115 -23 22 -23 22 -533 22 l-511 0 -21 -23z"/>
</g>
</svg>
